<?xml version="1.0" encoding="utf-8"?>
<!-- Generator: Adobe Illustrator 15.0.2, SVG Export Plug-In . SVG Version: 6.00 Build 0)  -->
<!DOCTYPE svg PUBLIC "-//W3C//DTD SVG 1.1//EN" "http://www.w3.org/Graphics/SVG/1.1/DTD/svg11.dtd">
<svg version="1.1" id="Layer_1" xmlns="http://www.w3.org/2000/svg" xmlns:xlink="http://www.w3.org/1999/xlink" x="0px" y="0px"
	 width="100px" height="100px" viewBox="0 0 100 100" enable-background="new 0 0 100 100" xml:space="preserve">
<g>
	<defs>
		<rect id="SVGID_1_" width="100" height="100"/>
	</defs>
	<clipPath id="SVGID_2_">
		<use xlink:href="#SVGID_1_"  overflow="visible"/>
	</clipPath>
	<path clip-path="url(#SVGID_2_)" fill="#5D5D5D" d="M27.88,28.819v42.478c0.075,0.139,0.15,0.277,0.24,0.412
		c1.553,2.331,4.983,2.825,7.545,1.691s4.363-3.511,5.66-5.995c2.113-4.047,3.183-8.633,3.077-13.196
		c3.05,2.684,2.732,7.522,1.539,11.405c-1.192,3.884-3.027,7.867-2.163,11.837c6.926,1.516,11.705,9.442,9.81,16.274L27.88,93.649
		v1.531h44.241V28.819H27.88z"/>
	<path clip-path="url(#SVGID_2_)" fill="none" stroke="#5D5D5D" stroke-width="2" stroke-miterlimit="10" d="M27.88,28.819v42.478
		c0.075,0.139,0.15,0.277,0.24,0.412c1.553,2.331,4.983,2.825,7.545,1.691s4.363-3.511,5.66-5.995
		c2.113-4.047,3.183-8.633,3.077-13.196c3.05,2.684,2.732,7.522,1.539,11.405c-1.192,3.884-3.027,7.867-2.163,11.837
		c6.926,1.516,11.705,9.442,9.81,16.274L27.88,93.649v1.531h44.241V28.819H27.88z"/>
	<path clip-path="url(#SVGID_2_)" fill="#5D5D5D" d="M43.778,77.451c-0.864-3.97,0.97-7.953,2.163-11.836
		c1.193-3.884,1.511-8.723-1.539-11.407c0.105,4.564-0.964,9.151-3.077,13.198c-1.297,2.483-3.098,4.86-5.66,5.994
		s-5.992,0.64-7.546-1.692c-0.089-0.134-0.165-0.272-0.239-0.411v22.353l25.708,0.076C55.482,86.894,50.704,78.966,43.778,77.451"/>
	<path clip-path="url(#SVGID_2_)" fill="none" stroke="#5D5D5D" stroke-width="2" stroke-miterlimit="10" d="M43.778,77.451
		c-0.864-3.97,0.97-7.953,2.163-11.836c1.193-3.884,1.511-8.723-1.539-11.407c0.105,4.564-0.964,9.151-3.077,13.198
		c-1.297,2.483-3.098,4.86-5.66,5.994s-5.992,0.64-7.546-1.692c-0.089-0.134-0.165-0.272-0.239-0.411v22.353l25.708,0.076
		C55.482,86.894,50.704,78.966,43.778,77.451z"/>
	<path clip-path="url(#SVGID_2_)" d="M71.235,41.867H28.765c-0.973,0-1.77-0.796-1.77-1.77c0-0.973,0.797-1.769,1.77-1.769h42.471
		c0.974,0,1.771,0.796,1.771,1.769C73.006,41.071,72.209,41.867,71.235,41.867"/>
	<path clip-path="url(#SVGID_2_)" fill="none" stroke="#000000" stroke-width="2" stroke-miterlimit="10" d="M71.235,41.867H28.765
		c-0.973,0-1.77-0.796-1.77-1.77c0-0.973,0.797-1.769,1.77-1.769h42.471c0.974,0,1.771,0.796,1.771,1.769
		C73.006,41.071,72.209,41.867,71.235,41.867z"/>
	<path clip-path="url(#SVGID_2_)" d="M71.235,57.744H28.765c-0.973,0-1.77-0.796-1.77-1.771c0-0.973,0.797-1.769,1.77-1.769h42.471
		c0.974,0,1.771,0.796,1.771,1.769C73.006,56.948,72.209,57.744,71.235,57.744"/>
	<path clip-path="url(#SVGID_2_)" fill="none" stroke="#000000" stroke-width="2" stroke-miterlimit="10" d="M71.235,57.744H28.765
		c-0.973,0-1.77-0.796-1.77-1.771c0-0.973,0.797-1.769,1.77-1.769h42.471c0.974,0,1.771,0.796,1.771,1.769
		C73.006,56.948,72.209,57.744,71.235,57.744z"/>
	<path clip-path="url(#SVGID_2_)" d="M71.235,71.852H28.765c-0.973,0-1.77-0.796-1.77-1.77s0.797-1.77,1.77-1.77h42.471
		c0.974,0,1.771,0.796,1.771,1.77S72.209,71.852,71.235,71.852"/>
	<path clip-path="url(#SVGID_2_)" fill="none" stroke="#000000" stroke-width="2" stroke-miterlimit="10" d="M71.235,71.852H28.765
		c-0.973,0-1.77-0.796-1.77-1.77s0.797-1.77,1.77-1.77h42.471c0.974,0,1.771,0.796,1.771,1.77S72.209,71.852,71.235,71.852z"/>
	<path clip-path="url(#SVGID_2_)" d="M71.235,86.897H28.765c-0.973,0-1.77-0.796-1.77-1.771c0-0.973,0.797-1.769,1.77-1.769h42.471
		c0.974,0,1.771,0.796,1.771,1.769C73.006,86.102,72.209,86.897,71.235,86.897"/>
	<path clip-path="url(#SVGID_2_)" fill="none" stroke="#000000" stroke-width="2" stroke-miterlimit="10" d="M71.235,86.897H28.765
		c-0.973,0-1.77-0.796-1.77-1.771c0-0.973,0.797-1.769,1.77-1.769h42.471c0.974,0,1.771,0.796,1.771,1.769
		C73.006,86.102,72.209,86.897,71.235,86.897z"/>
	<path clip-path="url(#SVGID_2_)" fill="#FF8600" d="M72.263,26.122c-0.601-0.361-0.915-1.153-0.931-1.883
		c-0.02-0.858,0.249-1.699,0.287-2.557c0.068-1.552-0.68-3.118-1.931-4.04c-0.376,0.845-0.324,1.815-0.202,2.732
		c0.123,0.917,0.308,1.844,0.176,2.759c-0.132,0.916-0.665,1.844-1.542,2.138c-0.877,0.294-2.025-0.347-1.992-1.271
		c0.017-0.432,0.262-0.817,0.411-1.223c0.31-0.849,0.17-1.849-0.36-2.581c-0.465-0.64-1.183-1.057-1.673-1.678
		c-0.307-0.389-0.488-0.938-0.427-1.411c-0.824,1.16-2.383,1.799-3.771,1.426c0.607-1.607,1.09-3.721-0.254-4.791
		c-0.3-0.239-0.687-0.417-0.833-0.772c-0.121-0.295-0.038-0.629,0.03-0.94c0.398-1.83,0.206-3.784-0.541-5.501
		c-0.205,1.177-0.766,2.289-1.592,3.153c-0.408,0.427-0.89,0.811-1.134,1.349c-0.271,0.6-0.201,1.29-0.255,1.947
		c-0.083,1.026-0.575,2.111-1.526,2.505c-0.951,0.393-2.289-0.324-2.184-1.348c-0.437,0.886-0.926,1.828-1.801,2.285
		c-0.875,0.457-2.225,0.095-2.376-0.881c-0.143-0.913,0.769-1.634,1.024-2.523c0.247-0.86-0.147-1.756-0.418-2.61
		c-0.214-0.674-0.314-1.477-0.022-2.083c-1.326,1.726-4.171,2.132-5.843,0.687c-0.347-0.301-0.658-0.706-0.646-1.165
		c0.013-0.48,0.368-0.87,0.671-1.243c0.848-1.041,1.415-2.302,1.659-3.622c-0.195,0.444-0.892,0.605-1.426,0.742
		c-1.379,0.355-2.479,1.612-2.647,3.026c-0.065,0.55-0.014,1.151-0.327,1.608c-0.312,0.457-1.202,0.49-1.292-0.056
		c-1.007,0.706-1.111,2.167-0.867,3.373c0.244,1.205,0.737,2.405,0.562,3.623c-0.176,1.218-1.434,2.396-2.558,1.896
		c-0.953-0.423-1.237-1.763-2.201-2.162c-0.406-0.168-0.865-0.135-1.296-0.225c-0.243-0.051-0.484-0.175-0.658-0.347
		c0.685,1.415,1.305,2.885,1.392,4.448c0.097,1.74-0.62,3.638-2.161,4.453c-0.758,0.4-1.642,0.509-2.411,0.888
		c-0.77,0.378-1.453,1.208-1.213,2.031l45.108-0.004C72.27,26.224,72.265,26.173,72.263,26.122"/>
	<path clip-path="url(#SVGID_2_)" fill="none" stroke="#FF8600" stroke-miterlimit="10" d="M72.263,26.122
		c-0.601-0.361-0.915-1.153-0.931-1.883c-0.02-0.858,0.249-1.699,0.287-2.557c0.068-1.552-0.68-3.118-1.931-4.04
		c-0.376,0.845-0.324,1.815-0.202,2.732c0.123,0.917,0.308,1.844,0.176,2.759c-0.132,0.916-0.665,1.844-1.542,2.138
		c-0.877,0.294-2.025-0.347-1.992-1.271c0.017-0.432,0.262-0.817,0.411-1.223c0.31-0.849,0.17-1.849-0.36-2.581
		c-0.465-0.64-1.183-1.057-1.673-1.678c-0.307-0.389-0.488-0.938-0.427-1.411c-0.824,1.16-2.383,1.799-3.771,1.426
		c0.607-1.607,1.09-3.721-0.254-4.791c-0.3-0.239-0.687-0.417-0.833-0.772c-0.121-0.295-0.038-0.629,0.03-0.94
		c0.398-1.83,0.206-3.784-0.541-5.501c-0.205,1.177-0.766,2.289-1.592,3.153c-0.408,0.427-0.89,0.811-1.134,1.349
		c-0.271,0.6-0.201,1.29-0.255,1.947c-0.083,1.026-0.575,2.111-1.526,2.505c-0.951,0.393-2.289-0.324-2.184-1.348
		c-0.437,0.886-0.926,1.828-1.801,2.285c-0.875,0.457-2.225,0.095-2.376-0.881c-0.143-0.913,0.769-1.634,1.024-2.523
		c0.247-0.86-0.147-1.756-0.418-2.61c-0.214-0.674-0.314-1.477-0.022-2.083c-1.326,1.726-4.171,2.132-5.843,0.687
		c-0.347-0.301-0.658-0.706-0.646-1.165c0.013-0.48,0.368-0.87,0.671-1.243c0.848-1.041,1.415-2.302,1.659-3.622
		c-0.195,0.444-0.892,0.605-1.426,0.742c-1.379,0.355-2.479,1.612-2.647,3.026c-0.065,0.55-0.014,1.151-0.327,1.608
		c-0.312,0.457-1.202,0.49-1.292-0.056c-1.007,0.706-1.111,2.167-0.867,3.373c0.244,1.205,0.737,2.405,0.562,3.623
		c-0.176,1.218-1.434,2.396-2.558,1.896c-0.953-0.423-1.237-1.763-2.201-2.162c-0.406-0.168-0.865-0.135-1.296-0.225
		c-0.243-0.051-0.484-0.175-0.658-0.347c0.685,1.415,1.305,2.885,1.392,4.448c0.097,1.74-0.62,3.638-2.161,4.453
		c-0.758,0.4-1.642,0.509-2.411,0.888c-0.77,0.378-1.453,1.208-1.213,2.031l45.108-0.004C72.27,26.224,72.265,26.173,72.263,26.122z
		"/>
</g>
</svg>
